<svg width="280.653" height="278.6" xmlns="http://www.w3.org/2000/svg"><path d="M249.906 812.527c1 15 1 30-6 50.996-25 84-113 148.997-184 128.004-45-13.004-72-57-55-115.004 21-72.003 112.004-148 209-118.996L641.902 884.52c13-107.997-37-188.993-131-217-59-18-121.996-20-177.996-8l-4-13.993c87.996-27.004 161-33.007 221-15 55.996 16.993 110.996 55 158 122.996 70.996 104.004 98.992 175 183.992 206.004 8.008-19 19.004-35 33.008-50.007l-430-497.997c-8.004 14.004-16 25.997-33.004 40-66.996 57.997-175.996 64.004-225 7.997-30-35-28.996-87 16.004-125.997 58-50 175-64.003 241 13l291 337c70-82.996 71.992-179.003 8-252.996-41.004-47.004-93.004-82.004-146.004-103.007l4-13.997c89 25 153 60 194.004 108 38 42.997 63.996 105.997 65.996 187.997 4.004 126.007-10 201.007 45 273.007 15.996-10 34.004-19.004 53.998-24.004l-93.002-652c-13.992 7-27.996 12.997-48.992 15.997-88 12.996-183.004-40.997-194-115-6-45 21.996-89.004 81.996-97.004 75-10.996 180.996 41.007 195 141.007L1013.9 592.52c104.01-31.993 157-111.993 143-208.997-8.99-61.003-33-119.003-67-165l11-10c61 68.997 97.01 133 106 195 8 58-3.99 123.997-47 195-65 107.004-116.99 163-109 254.004h5c18 0 36 3 53 8l273.99-598.007c-15.99-2.004-30-3.997-50-13-80-37-131.99-134.004-100.99-201.004 19-41.993 65.99-63 120.99-38 69.01 31.007 131.01 132.004 89.01 224.004l-186 405c105 29.003 193-8.993 233-97.997 26-57.003 37-119.003 33-175.996l14-2.004c15 90.997 10 163.997-16 220.997-24 53-70 102.003-144 139.003-113.01 55-187 75-229 154.004 17 10 32 23 45 38l553-355c-13-10-24.01-19.004-35-38.007-48-73.997-39.01-183 24-223 38-25 90-17 121.99 33 41.01 64.003 38.01 182-46.99 237l-375 241.007c73 80 167 95 250 42 51.99-33.007 95-79.004 121.99-129.004l13.01 5.997c-37 84.003-80 143.007-133.01 177.003-48.99 31-113.99 48.004-195.99 39.004-124-14.004-197.01-39.004-275 5 7.99 16.996 14 36.996 16 56.993h656.99c-5-14.997-8.99-28.997-8.99-50.997 0-88 66.99-175 141-175 45.99 0 85 34.004 85 94.004 0 75.996-66.01 174.003-167.01 174.003H1491.9c18 107 89 171 187 171 61.99 0 123-16 173-43l8 12c-77.01 51-145 77-208 77-58 0-122-21-186-73.01-97-78.99-145-138.99-235-145-2 21.01-7 40-16 58.01l552 354c3.99-15 8-29 20-47 48-74 150.99-111 213-72 38.99 25 53.99 75 20.99 126-40.99 63-148.99 110-233.99 56l-376-241c-42 100-17 192 65 245 53 33 113 53 169 57v14c-92.01 2-163-13-216-47-49-32-92-84-117-162-39.01-119-47-195-120-248-12 15-28 28-45 39l274 597c11-11 21.99-21 41.99-30 80-36 187.01-12 218 56 19.01 41 5 91-50 116-68.99 32-184.99 12-228-79l-185-406c-89.98 61-118.99 152-77.99 241 26 57 66 105 111 140l-7 12c-79-49-130.99-100-157-157-23.99-53-32-120-11-200 32.01-121 66-189 34-274-16.99 6-35 9-54 9h-5l-92.994 651c15.996-3 30-5 51.994-2 87 12 164 91 154 164-7 46-45.99 80.01-105 71-75.994-10.99-162.998-90-148.994-190l63-441c-109.004 2-182.004 64-196.008 161-8.992 61-.996 124 18.008 177l-13.008 6c-38.992-83-55.996-154-46.996-216 8.004-58 38.004-118 99-174 92-85 157.996-124.01 175.998-213-19.994-5-38.002-14-53.998-25l-429 498c14 6 27.004 12 44 27 67.004 57 89 165 40 221-30 35-80.996 42.01-125.996 3-58.004-50-89.004-164-23.004-240l292-338c-93-56-188-44-252 30-41 47-67.996 103-81 159l-14-2c12.004-91 37.004-160 78.004-208 38-43 94.996-78 176.996-93 124-22 199.996-18.01 263.004-83.01-13.008-15-25-31.99-33.008-50.99l-629.996 188c9.004 12.99 17.004 25 23.004 46 25 84-14 187-85 208-44 13-91-9-107.996-66-22.004-73 13.996-186 110-214l427.992-127c-48-98-134-139.007-228-111-58.996 18-112.996 50-152.996 90l-12.004-9c60-71 118.004-115.007 178.004-133.003 55.996-16.004 123-14 199 17.996 115.996 48.007 179 92.007 266.996 70.997-2-10-2.996-20-2.996-30s.996-20 2.996-28.993zm715.996 215.993c0 49 39.998 88.01 88.998 88.01 49 0 89-39.01 89-88.01 0-49.997-40-87.993-89-87.993s-88.998 37.996-88.998 87.993" style="fill:#000;fill-opacity:1;fill-rule:nonzero;stroke:none" transform="matrix(.13333 0 0 -.13333 0 278.6)"/></svg>